<svg width="24" height="32" viewBox="0 0 24 32" fill="none" xmlns="http://www.w3.org/2000/svg">
<g clip-path="url(#clip0_10044_9920)">
<path fill-rule="evenodd" clip-rule="evenodd" d="M21.75 10H19.5V9.25C19.5 8.42157 18.8284 7.75 18 7.75H6C5.17157 7.75 4.5 8.42157 4.5 9.25V10H2.25C1.42157 10 0.75 10.6716 0.75 11.5V13C0.75 15.0711 2.42893 16.75 4.5 16.75H4.84219C5.74518 19.6116 8.26452 21.6614 11.25 21.9634V24.25H9C8.58579 24.25 8.25 24.5858 8.25 25C8.25 25.4142 8.58579 25.75 9 25.75H15C15.4142 25.75 15.75 25.4142 15.75 25C15.75 24.5858 15.4142 24.25 15 24.25H12.75V21.9606C15.7444 21.6578 18.2288 19.5569 19.1325 16.75H19.5C21.5711 16.75 23.25 15.0711 23.25 13V11.5C23.25 10.6716 22.5784 10 21.75 10ZM4.5 15.25C3.25736 15.25 2.25 14.2426 2.25 13V11.5H4.5V14.5C4.5 14.75 4.51219 15 4.53656 15.25H4.5ZM18 14.4156C18 17.7456 15.3291 20.4756 12.0459 20.5H12C8.68629 20.5 6 17.8137 6 14.5V9.25H18V14.4156ZM21.75 13C21.75 14.2426 20.7426 15.25 19.5 15.25H19.4531C19.4839 14.9729 19.4995 14.6944 19.5 14.4156V11.5H21.75V13Z" fill="#969799"/>
</g>
<defs>
<clipPath id="clip0_10044_9920">
<rect width="24" height="24" fill="white" transform="translate(0 4)"/>
</clipPath>
</defs>
</svg>
