<svg width="24" height="32" viewBox="0 0 24 32" fill="none" xmlns="http://www.w3.org/2000/svg">
<g clip-path="url(#clip0_10044_9913)">
<path fill-rule="evenodd" clip-rule="evenodd" d="M10.9922 18.805C13.0561 17.431 13.9769 14.8677 13.2592 12.4944C12.5414 10.1211 10.3544 8.49772 7.875 8.49772C5.39558 8.49772 3.20857 10.1211 2.49084 12.4944C1.7731 14.8677 2.69393 17.431 4.75781 18.805C2.93952 19.4752 1.38666 20.7153 0.330938 22.3403C0.179932 22.5647 0.161484 22.8531 0.28266 23.095C0.403836 23.3368 0.645857 23.4947 0.916031 23.5081C1.18621 23.5215 1.44266 23.3884 1.58719 23.1597C2.97076 21.0317 5.33677 19.7479 7.875 19.7479C10.4132 19.7479 12.7792 21.0317 14.1628 23.1597C14.3917 23.4999 14.8514 23.5932 15.1948 23.3692C15.5382 23.1452 15.6381 22.6869 15.4191 22.3403C14.3633 20.7153 12.8105 19.4752 10.9922 18.805ZM3.75 14.125C3.75 11.8468 5.59683 10 7.875 10C10.1532 10 12 11.8468 12 14.125C12 16.4032 10.1532 18.25 7.875 18.25C5.5979 18.2474 3.75258 16.4021 3.75 14.125ZM23.4506 23.3781C23.1037 23.6043 22.6391 23.5066 22.4128 23.1597C21.0308 21.0303 18.6636 19.7466 16.125 19.75C15.7108 19.75 15.375 19.4142 15.375 19C15.375 18.5858 15.7108 18.25 16.125 18.25C17.7863 18.2484 19.2846 17.2504 19.9261 15.718C20.5677 14.1855 20.2273 12.4178 19.0626 11.2331C17.898 10.0484 16.1363 9.67805 14.5931 10.2934C14.3427 10.4017 14.0531 10.3654 13.8372 10.1986C13.6212 10.0319 13.5128 9.76096 13.5542 9.49125C13.5956 9.22154 13.7802 8.99558 14.0363 8.90125C16.7109 7.83457 19.7592 8.96001 21.099 11.5088C22.4388 14.0576 21.6374 17.2067 19.2422 18.805C21.0605 19.4752 22.6133 20.7153 23.6691 22.3403C23.8953 22.6872 23.7975 23.1518 23.4506 23.3781Z" fill="#969799"/>
</g>
<defs>
<clipPath id="clip0_10044_9913">
<rect width="24" height="24" fill="white" transform="translate(0 4)"/>
</clipPath>
</defs>
</svg>
